<svg xmlns="http://www.w3.org/2000/svg" viewBox="0 0 1024 1024" width="1024" height="1024">
<rect width="1024" height="1024" rx="230" fill="#0D1117"/>
<g transform="translate(64.6,73.4) scale(0.846)"><path fill="#00D2E0" d="M512 105.5A406.5 406.5 0 0 1 864.04 715.25A75.5 75.5 0 0 1 733.27 639.75A255.5 255.5 0 0 0 512 256.5A75.5 75.5 0 0 1 512 105.5Z"/><path fill="#F2F2F7" d="M551.5 443.58L264.85 278.08A79 79 0 0 0 185.85 414.92L472.5 580.42A79 79 0 0 0 551.5 443.58ZM472.5 443.58L185.85 609.08A79 79 0 0 0 264.85 745.92L551.5 580.42A79 79 0 0 0 472.5 443.58ZM433 512L433 843A79 79 0 0 0 591 843L591 512A79 79 0 0 0 433 512Z"/></g>
</svg>
